<svg width="720" height="97" viewBox="0 0 720 97" fill="none" xmlns="http://www.w3.org/2000/svg">
    <path
        d="M22.32 73.96C13.872 73.96 5.328 71.752 0.144 68.104V50.536H3.216L6.096 56.584C9.744 64.168 15.312 67.912 22.608 67.912C29.232 67.912 34.224 63.88 34.224 58.504C34.224 53.128 30.288 49.864 15.792 43.144C5.04 38.248 0.336 32.584 0.336 24.52C0.336 13.768 9.264 6.27999 22.032 6.27999C28.272 6.27999 36.24 8.008 40.944 10.408L42.096 26.056H38.928L36.24 21.736C32.112 15.304 27.12 12.328 21.168 12.328C15.504 12.328 11.28 15.784 11.28 20.392C11.28 24.904 14.832 27.88 26.832 33.832C40.848 40.744 45.84 46.216 45.84 54.664C45.84 65.992 36.336 73.96 22.32 73.96ZM65.784 16.84C61.08 16.84 57.912 13.192 57.912 8.872C57.912 4.07199 61.464 0.903996 65.784 0.903996C70.2 0.903996 73.752 4.07199 73.752 8.872C73.752 13.48 70.488 16.84 65.784 16.84ZM80.088 73H53.4V70.12L57.048 68.488C59.832 67.144 60.6 65.992 60.6 62.632V40.84C60.6 36.328 59.736 34.984 57.048 34.216L53.688 33.16V30.376L70.296 23.752L72.888 25.288V62.632C72.888 65.992 73.656 67.144 76.44 68.488L80.088 70.12V73ZM110.82 73H84.9V70.12L88.548 68.488C91.332 67.144 92.1 65.896 92.1 62.632V41.032C92.1 36.52 91.236 35.08 88.548 34.312L85.188 33.256V30.472L100.74 23.752L103.332 25.288V34.504C106.98 29.32 112.26 23.752 119.748 23.752C127.236 23.752 132.036 27.592 134.244 33.64C137.316 29.32 143.172 23.752 150.564 23.752C160.548 23.752 166.5 30.856 166.5 42.952V62.632C166.5 65.992 167.076 67.144 170.052 68.488L173.604 70.12V73H147.684V70.12L151.044 68.584C153.54 67.432 154.212 66.376 154.212 62.632V45.448C154.212 37.48 151.236 33.64 145.284 33.64C141.732 33.64 138.372 35.944 135.492 39.784C135.588 40.744 135.684 41.8 135.684 42.952V62.632C135.684 66.472 136.164 67.624 138.372 68.584L141.732 70.12V73H116.964V70.12L120.42 68.584C122.82 67.432 123.396 66.376 123.396 62.632V45.448C123.396 37.768 120.516 33.64 114.564 33.64C110.82 33.64 107.268 35.752 104.388 39.208V62.632C104.388 66.376 104.964 67.432 107.46 68.584L110.82 70.12V73ZM206.229 96.04H177.237V93.16L180.885 91.528C183.861 90.184 184.725 88.744 184.725 85.672V40.936C184.725 36.616 183.861 35.176 181.173 34.312L177.813 33.256V30.376L193.365 23.752L195.957 25.288V32.584C200.949 26.92 206.709 23.752 212.085 23.752C223.605 23.752 231.957 33.448 231.957 46.888C231.957 63.688 221.685 73.96 205.269 73.96C202.581 73.96 199.701 73.288 197.013 72.136V85.672C197.013 88.552 198.069 89.8 202.293 91.528L206.229 93.16V96.04ZM206.229 68.776C213.621 68.776 218.613 61.288 218.613 50.344C218.613 39.208 214.101 32.68 206.421 32.68C202.965 32.68 199.509 34.408 197.013 37.384V59.368C197.301 65.224 200.853 68.776 206.229 68.776ZM265.151 73H238.463V70.12L242.111 68.488C244.895 67.144 245.663 65.992 245.663 62.632V17.992C245.663 13.672 244.799 12.328 242.111 11.464L238.751 10.408V7.528L255.359 0.999994L257.951 2.632V62.632C257.951 65.992 258.719 67.144 261.503 68.488L265.151 70.12V73ZM295.307 73.96C280.715 73.96 271.691 65.032 271.691 49.096C271.691 34.696 281.674 23.752 295.211 23.752C307.979 23.752 316.427 31.72 316.619 45.544V47.752H285.035V48.712C285.035 60.136 290.987 66.28 300.875 66.28C305.387 66.28 308.843 64.936 312.875 62.344L315.659 65.896C310.283 71.176 303.563 73.96 295.307 73.96ZM285.227 42.664L304.235 42.28C304.139 34.12 300.779 29.032 295.403 29.032C289.643 29.032 286.283 33.544 285.227 42.664ZM400.906 73H348.106V70.024L351.562 68.392C354.826 66.76 355.498 65.512 355.498 62.632V17.704C355.498 14.728 354.826 13.384 351.562 11.848L348.106 10.216V7.23999H400.426L401.482 23.272H398.314L395.338 18.76C392.074 14.152 390.346 12.904 385.93 12.904H368.554V36.904H381.514C384.682 36.904 385.93 36.136 387.37 32.968L388.906 29.512H391.978V51.4H388.906L387.466 47.368C386.026 43.528 384.586 42.568 381.514 42.568H368.554V61.768C368.554 66.088 369.706 67.336 373.93 67.336H386.41C391.594 67.336 393.226 66.28 396.778 61.096L400.138 55.912H403.114L400.906 73ZM436.048 73H409.744V70.12L413.392 68.488C416.272 67.144 416.944 65.896 416.944 62.632V41.032C416.944 36.616 416.176 35.176 413.392 34.312L410.032 33.256V30.472L425.584 23.752L428.176 25.288V34.408C433.168 27.784 439.6 23.752 445.744 23.752C455.728 23.752 461.872 30.952 461.872 42.952V62.632C461.872 65.896 462.544 67.144 465.424 68.488L468.976 70.12V73H442.768V70.12L446.416 68.488C448.912 67.24 449.584 66.184 449.584 62.632V45.448C449.584 37.672 446.128 33.64 439.888 33.64C435.952 33.64 432.016 35.848 429.232 39.208V62.632C429.232 66.184 429.808 67.24 432.4 68.488L436.048 70.12V73ZM494.721 97C481.665 97 474.369 92.872 474.369 85.48C474.369 81.832 476.769 78.472 482.817 74.728C477.441 73.384 475.233 70.792 475.233 66.28C475.233 65.608 475.233 65.128 475.329 64.648L483.585 54.088C478.209 51.208 474.945 46.312 474.945 40.552C474.945 31.24 484.161 23.752 496.545 23.752C500.673 23.752 504.321 24.424 507.297 25.672L520.929 23.752H523.809L523.425 31.432L514.017 30.376C516.609 33.16 517.953 36.616 517.953 40.84C517.953 50.344 509.121 57.16 496.545 57.16C493.473 57.16 490.689 56.776 488.193 55.912L485.889 59.848C485.889 60.424 485.985 61 486.273 61.384C486.849 63.016 489.441 64.168 494.529 64.168H507.009C518.721 64.168 523.713 67.912 523.713 76.744C523.713 88.648 511.617 97 494.721 97ZM496.641 52.072C501.921 52.072 505.089 47.752 505.089 40.552C505.089 33.256 501.825 28.84 496.641 28.84C491.265 28.84 487.905 33.928 487.905 40.552C487.905 47.464 491.265 52.072 496.641 52.072ZM499.233 89.896C508.833 89.896 516.129 86.344 516.129 81.544C516.129 77.416 513.441 75.688 505.473 75.688H492.225C490.785 75.688 489.633 75.688 487.713 75.592C485.409 78.28 484.545 80.392 484.545 82.504C484.545 87.496 489.345 89.896 499.233 89.896ZM554.838 73H528.15V70.12L531.798 68.488C534.582 67.144 535.35 65.992 535.35 62.632V17.992C535.35 13.672 534.486 12.328 531.798 11.464L528.438 10.408V7.528L545.046 0.999994L547.638 2.632V62.632C547.638 65.992 548.406 67.144 551.19 68.488L554.838 70.12V73ZM572.034 16.84C567.33 16.84 564.162 13.192 564.162 8.872C564.162 4.07199 567.714 0.903996 572.034 0.903996C576.45 0.903996 580.002 4.07199 580.002 8.872C580.002 13.48 576.738 16.84 572.034 16.84ZM586.338 73H559.65V70.12L563.298 68.488C566.082 67.144 566.85 65.992 566.85 62.632V40.84C566.85 36.328 565.986 34.984 563.298 34.216L559.938 33.16V30.376L576.546 23.752L579.138 25.288V62.632C579.138 65.992 579.906 67.144 582.69 68.488L586.338 70.12V73ZM610.446 73.96C604.206 73.96 597.39 72.232 592.59 68.968L593.934 56.776H597.006L599.502 61.192C602.574 66.28 606.03 68.68 611.118 68.68C615.822 68.68 618.99 66.376 618.99 62.248C618.99 58.984 616.878 56.488 606.99 52.456C597.678 48.712 593.55 44.008 593.55 37.672C593.55 29.224 600.654 23.752 611.406 23.752C617.262 23.752 623.694 25.096 628.014 27.112L626.862 38.44H623.694C622.446 36.136 621.102 34.408 619.566 32.584C617.55 30.28 614.67 29.032 611.598 29.032C606.99 29.032 604.302 31.048 604.302 34.12C604.302 37.576 606.702 39.496 616.59 43.816C626.67 48.232 630.126 52.648 630.126 58.696C630.126 67.816 621.966 73.96 610.446 73.96ZM662.642 73H636.338V70.12L639.986 68.488C642.866 67.144 643.538 65.896 643.538 62.632V17.992C643.538 13.768 642.674 12.328 639.986 11.464L636.626 10.408V7.528L653.234 0.999994L655.826 2.632V32.872C660.722 27.016 666.674 23.752 672.338 23.752C682.322 23.752 688.466 30.856 688.466 42.664V62.632C688.466 65.896 689.138 67.144 692.018 68.488L695.57 70.12V73H669.362V70.12L673.01 68.488C675.506 67.24 676.178 66.184 676.178 62.632V45.16C676.178 37.672 672.722 33.64 666.482 33.64C662.546 33.64 658.514 35.752 655.826 39.016V62.632C655.826 66.184 656.402 67.24 658.994 68.488L662.642 70.12V73ZM711.308 73.96C706.796 73.96 703.436 70.504 703.436 65.992C703.436 61.48 706.796 58.024 711.308 58.024C715.916 58.024 719.276 61.48 719.276 65.992C719.276 70.504 715.916 73.96 711.308 73.96Z"
        fill="#322929" />
</svg>
